{
	"patcher" : 	{
		"fileversion" : 1,
		"appversion" : 		{
			"major" : 8,
			"minor" : 6,
			"revision" : 4,
			"architecture" : "x64",
			"modernui" : 1
		}
,
		"classnamespace" : "box",
		"rect" : [ 234.0, 84.0, 1068.0, 673.0 ],
		"bglocked" : 0,
		"openinpresentation" : 0,
		"default_fontsize" : 12.0,
		"default_fontface" : 0,
		"default_fontname" : "Arial",
		"gridonopen" : 1,
		"gridsize" : [ 15.0, 15.0 ],
		"gridsnaponopen" : 1,
		"objectsnaponopen" : 1,
		"statusbarvisible" : 2,
		"toolbarvisible" : 1,
		"lefttoolbarpinned" : 0,
		"toptoolbarpinned" : 0,
		"righttoolbarpinned" : 0,
		"bottomtoolbarpinned" : 0,
		"toolbars_unpinned_last_save" : 0,
		"tallnewobj" : 0,
		"boxanimatetime" : 200,
		"enablehscroll" : 1,
		"enablevscroll" : 1,
		"devicewidth" : 0.0,
		"description" : "",
		"digest" : "",
		"tags" : "",
		"style" : "",
		"subpatcher_template" : "",
		"assistshowspatchername" : 0,
		"boxes" : [ 			{
				"box" : 				{
					"bgcolor" : [ 0.090196078431373, 0.670588235294118, 0.847058823529412, 0.0 ],
					"bubble" : 1,
					"id" : "obj-42",
					"maxclass" : "comment",
					"numinlets" : 1,
					"numoutlets" : 0,
					"patching_rect" : [ 1061.5, 921.0, 150.0, 24.0 ],
					"presentation" : 1,
					"presentation_rect" : [ 357.0, 89.0, 150.0, 24.0 ],
					"text" : "Choose a Preset"
				}

			}
, 			{
				"box" : 				{
					"id" : "obj-40",
					"maxclass" : "message",
					"numinlets" : 2,
					"numoutlets" : 1,
					"outlettype" : [ "" ],
					"patching_rect" : [ 1178.0, 868.0, 45.0, 22.0 ],
					"text" : "store 3"
				}

			}
, 			{
				"box" : 				{
					"id" : "obj-38",
					"maxclass" : "message",
					"numinlets" : 2,
					"numoutlets" : 1,
					"outlettype" : [ "" ],
					"patching_rect" : [ 1126.0, 868.0, 45.0, 22.0 ],
					"text" : "store 2"
				}

			}
, 			{
				"box" : 				{
					"id" : "obj-33",
					"maxclass" : "message",
					"numinlets" : 2,
					"numoutlets" : 1,
					"outlettype" : [ "" ],
					"patching_rect" : [ 1075.0, 868.0, 45.0, 22.0 ],
					"text" : "store 1"
				}

			}
, 			{
				"box" : 				{
					"id" : "obj-28",
					"maxclass" : "message",
					"numinlets" : 2,
					"numoutlets" : 1,
					"outlettype" : [ "" ],
					"patching_rect" : [ 1020.0, 963.0, 29.5, 22.0 ],
					"presentation" : 1,
					"presentation_rect" : [ 312.0, 129.0, 29.5, 22.0 ],
					"text" : "3"
				}

			}
, 			{
				"box" : 				{
					"id" : "obj-23",
					"maxclass" : "message",
					"numinlets" : 2,
					"numoutlets" : 1,
					"outlettype" : [ "" ],
					"patching_rect" : [ 1020.0, 930.0, 29.5, 22.0 ],
					"presentation" : 1,
					"presentation_rect" : [ 312.0, 96.0, 29.5, 22.0 ],
					"text" : "2"
				}

			}
, 			{
				"box" : 				{
					"id" : "obj-17",
					"maxclass" : "message",
					"numinlets" : 2,
					"numoutlets" : 1,
					"outlettype" : [ "" ],
					"patching_rect" : [ 1020.0, 898.0, 29.5, 22.0 ],
					"presentation" : 1,
					"presentation_rect" : [ 312.0, 64.0, 29.5, 22.0 ],
					"text" : "1"
				}

			}
, 			{
				"box" : 				{
					"id" : "obj-12",
					"maxclass" : "message",
					"numinlets" : 2,
					"numoutlets" : 1,
					"outlettype" : [ "" ],
					"patching_rect" : [ 1261.0, 917.0, 33.0, 22.0 ],
					"text" : "read"
				}

			}
, 			{
				"box" : 				{
					"id" : "obj-9",
					"maxclass" : "message",
					"numinlets" : 2,
					"numoutlets" : 1,
					"outlettype" : [ "" ],
					"patching_rect" : [ 1260.0, 893.0, 34.0, 22.0 ],
					"text" : "write"
				}

			}
, 			{
				"box" : 				{
					"id" : "obj-5",
					"maxclass" : "newobj",
					"numinlets" : 1,
					"numoutlets" : 4,
					"outlettype" : [ "", "", "", "" ],
					"patching_rect" : [ 1121.0, 822.0, 56.0, 22.0 ],
					"text" : "autopattr",
					"varname" : "u193004074"
				}

			}
, 			{
				"box" : 				{
					"id" : "obj-3",
					"maxclass" : "newobj",
					"numinlets" : 1,
					"numoutlets" : 1,
					"outlettype" : [ "bang" ],
					"patching_rect" : [ 1006.0, 822.0, 58.0, 22.0 ],
					"text" : "loadbang"
				}

			}
, 			{
				"box" : 				{
					"id" : "obj-1",
					"maxclass" : "newobj",
					"numinlets" : 1,
					"numoutlets" : 1,
					"outlettype" : [ "" ],
					"patching_rect" : [ 1075.0, 963.0, 123.0, 22.0 ],
					"saved_object_attributes" : 					{
						"client_rect" : [ 4, 44, 358, 172 ],
						"parameter_enable" : 0,
						"parameter_mappable" : 0,
						"storage_rect" : [ 583, 69, 1034, 197 ]
					}
,
					"text" : "pattrstorage mySynth",
					"varname" : "mySynth"
				}

			}
, 			{
				"box" : 				{
					"bgmode" : 0,
					"border" : 0,
					"clickthrough" : 0,
					"enablehscroll" : 0,
					"enablevscroll" : 0,
					"extract" : 1,
					"id" : "obj-37",
					"lockeddragscroll" : 0,
					"lockedsize" : 0,
					"maxclass" : "bpatcher",
					"name" : "bp.Signal Mixer.maxpat",
					"numinlets" : 4,
					"numoutlets" : 1,
					"offset" : [ 0.0, 0.0 ],
					"outlettype" : [ "signal" ],
					"patching_rect" : [ 613.0, 341.0, 175.0, 116.0 ],
					"varname" : "bp.Signal Mixer",
					"viewvisibility" : 1
				}

			}
, 			{
				"box" : 				{
					"bgmode" : 0,
					"border" : 0,
					"clickthrough" : 0,
					"enablehscroll" : 0,
					"enablevscroll" : 0,
					"extract" : 1,
					"id" : "obj-36",
					"lockeddragscroll" : 0,
					"lockedsize" : 0,
					"maxclass" : "bpatcher",
					"name" : "bp.Oscillator.maxpat",
					"numinlets" : 6,
					"numoutlets" : 2,
					"offset" : [ 0.0, 0.0 ],
					"outlettype" : [ "signal", "signal" ],
					"patching_rect" : [ 813.0, 193.5, 314.0, 116.0 ],
					"varname" : "bp.Oscillator[2]",
					"viewvisibility" : 1
				}

			}
, 			{
				"box" : 				{
					"bgmode" : 0,
					"border" : 0,
					"clickthrough" : 0,
					"enablehscroll" : 0,
					"enablevscroll" : 0,
					"extract" : 1,
					"id" : "obj-34",
					"lockeddragscroll" : 0,
					"lockedsize" : 0,
					"maxclass" : "bpatcher",
					"name" : "bp.LFO2.maxpat",
					"numinlets" : 1,
					"numoutlets" : 2,
					"offset" : [ 0.0, 0.0 ],
					"outlettype" : [ "signal", "signal" ],
					"patching_rect" : [ 248.0, 127.0, 170.0, 116.0 ],
					"varname" : "bp.LFO2",
					"viewvisibility" : 1
				}

			}
, 			{
				"box" : 				{
					"id" : "obj-32",
					"maxclass" : "comment",
					"numinlets" : 1,
					"numoutlets" : 0,
					"patching_rect" : [ 638.0, 483.0, 150.0, 20.0 ],
					"text" : "Filter"
				}

			}
, 			{
				"box" : 				{
					"bgmode" : 0,
					"border" : 0,
					"clickthrough" : 0,
					"enablehscroll" : 0,
					"enablevscroll" : 0,
					"extract" : 1,
					"id" : "obj-30",
					"lockeddragscroll" : 0,
					"lockedsize" : 0,
					"maxclass" : "bpatcher",
					"name" : "bp.Classroom Filter.maxpat",
					"numinlets" : 4,
					"numoutlets" : 1,
					"offset" : [ 0.0, 0.0 ],
					"outlettype" : [ "signal" ],
					"patching_rect" : [ 506.0, 518.0, 558.0, 223.0 ],
					"varname" : "bp.Classroom Filter",
					"viewvisibility" : 1
				}

			}
, 			{
				"box" : 				{
					"id" : "obj-29",
					"maxclass" : "comment",
					"numinlets" : 1,
					"numoutlets" : 0,
					"patching_rect" : [ 1038.0, 348.0, 150.0, 20.0 ],
					"text" : "ADSR"
				}

			}
, 			{
				"box" : 				{
					"id" : "obj-27",
					"maxclass" : "comment",
					"numinlets" : 1,
					"numoutlets" : 0,
					"patching_rect" : [ 1047.0, 323.0, 150.0, 20.0 ],
					"text" : "Envelope"
				}

			}
, 			{
				"box" : 				{
					"bgmode" : 0,
					"border" : 0,
					"clickthrough" : 0,
					"enablehscroll" : 0,
					"enablevscroll" : 0,
					"extract" : 1,
					"id" : "obj-25",
					"lockeddragscroll" : 0,
					"lockedsize" : 0,
					"maxclass" : "bpatcher",
					"name" : "bp.Graphic ADSR.maxpat",
					"numinlets" : 3,
					"numoutlets" : 1,
					"offset" : [ 0.0, 0.0 ],
					"outlettype" : [ "signal" ],
					"patching_rect" : [ 1038.0, 373.0, 267.0, 116.0 ],
					"varname" : "bp.Graphic ADSR",
					"viewvisibility" : 1
				}

			}
, 			{
				"box" : 				{
					"id" : "obj-24",
					"maxclass" : "comment",
					"numinlets" : 1,
					"numoutlets" : 0,
					"patching_rect" : [ 825.0, 885.0, 150.0, 20.0 ],
					"text" : "Beap VCA"
				}

			}
, 			{
				"box" : 				{
					"bgmode" : 0,
					"border" : 0,
					"clickthrough" : 0,
					"enablehscroll" : 0,
					"enablevscroll" : 0,
					"extract" : 1,
					"id" : "obj-22",
					"lockeddragscroll" : 0,
					"lockedsize" : 0,
					"maxclass" : "bpatcher",
					"name" : "bp.VCA.maxpat",
					"numinlets" : 2,
					"numoutlets" : 1,
					"offset" : [ 0.0, 0.0 ],
					"outlettype" : [ "signal" ],
					"patching_rect" : [ 706.0, 842.0, 113.0, 116.0 ],
					"varname" : "bp.VCA",
					"viewvisibility" : 1
				}

			}
, 			{
				"box" : 				{
					"bgmode" : 0,
					"border" : 0,
					"clickthrough" : 0,
					"enablehscroll" : 0,
					"enablevscroll" : 0,
					"extract" : 1,
					"id" : "obj-21",
					"lockeddragscroll" : 0,
					"lockedsize" : 0,
					"maxclass" : "bpatcher",
					"name" : "bp.Keyboard.maxpat",
					"numinlets" : 0,
					"numoutlets" : 4,
					"offset" : [ 0.0, 0.0 ],
					"outlettype" : [ "signal", "signal", "signal", "signal" ],
					"patching_rect" : [ 569.0, 42.0, 578.0, 117.0 ],
					"presentation" : 1,
					"presentation_rect" : [ 370.0, 129.0, 578.0, 117.0 ],
					"varname" : "bp.Keyboard",
					"viewvisibility" : 1
				}

			}
, 			{
				"box" : 				{
					"id" : "obj-20",
					"maxclass" : "comment",
					"numinlets" : 1,
					"numoutlets" : 0,
					"patching_rect" : [ 146.0, 399.0, 150.0, 20.0 ],
					"text" : "Beap Spectral Scope"
				}

			}
, 			{
				"box" : 				{
					"bgmode" : 0,
					"border" : 0,
					"clickthrough" : 0,
					"enablehscroll" : 0,
					"enablevscroll" : 0,
					"extract" : 1,
					"id" : "obj-18",
					"lockeddragscroll" : 0,
					"lockedsize" : 0,
					"maxclass" : "bpatcher",
					"name" : "bp.Big Spectral.maxpat",
					"numinlets" : 1,
					"numoutlets" : 1,
					"offset" : [ 0.0, 0.0 ],
					"outlettype" : [ "signal" ],
					"patching_rect" : [ 0.0, 421.0, 435.0, 214.0 ],
					"varname" : "bp.Big Spectral",
					"viewvisibility" : 1
				}

			}
, 			{
				"box" : 				{
					"id" : "obj-16",
					"maxclass" : "comment",
					"numinlets" : 1,
					"numoutlets" : 0,
					"patching_rect" : [ 825.0, 1037.0, 150.0, 20.0 ],
					"text" : "beap stereo"
				}

			}
, 			{
				"box" : 				{
					"bgmode" : 0,
					"border" : 0,
					"clickthrough" : 0,
					"enablehscroll" : 0,
					"enablevscroll" : 0,
					"extract" : 1,
					"id" : "obj-14",
					"lockeddragscroll" : 0,
					"lockedsize" : 0,
					"maxclass" : "bpatcher",
					"name" : "bp.Stereo.maxpat",
					"numinlets" : 2,
					"numoutlets" : 0,
					"offset" : [ 0.0, 0.0 ],
					"patching_rect" : [ 653.0, 989.0, 148.0, 116.0 ],
					"presentation" : 1,
					"presentation_rect" : [ 766.0, 367.0, 148.0, 116.0 ],
					"varname" : "bp.Stereo",
					"viewvisibility" : 1
				}

			}
, 			{
				"box" : 				{
					"id" : "obj-13",
					"maxclass" : "comment",
					"numinlets" : 1,
					"numoutlets" : 0,
					"patching_rect" : [ 285.0, 874.0, 150.0, 20.0 ],
					"text" : "Beap oscilloscope"
				}

			}
, 			{
				"box" : 				{
					"id" : "obj-11",
					"maxclass" : "comment",
					"numinlets" : 1,
					"numoutlets" : 0,
					"patching_rect" : [ 825.0, 348.0, 150.0, 20.0 ],
					"text" : "Beap oscillator "
				}

			}
, 			{
				"box" : 				{
					"bgmode" : 0,
					"border" : 0,
					"clickthrough" : 0,
					"enablehscroll" : 0,
					"enablevscroll" : 0,
					"extract" : 1,
					"id" : "obj-8",
					"lockeddragscroll" : 0,
					"lockedsize" : 0,
					"maxclass" : "bpatcher",
					"name" : "bp.Big Scope.maxpat",
					"numinlets" : 2,
					"numoutlets" : 1,
					"offset" : [ 0.0, 0.0 ],
					"outlettype" : [ "signal" ],
					"patching_rect" : [ 26.0, 646.0, 372.0, 214.0 ],
					"presentation" : 1,
					"presentation_rect" : [ 370.0, 269.0, 372.0, 214.0 ],
					"varname" : "bp.Big Scope",
					"viewvisibility" : 1
				}

			}
, 			{
				"box" : 				{
					"bgmode" : 0,
					"border" : 0,
					"clickthrough" : 0,
					"enablehscroll" : 0,
					"enablevscroll" : 0,
					"extract" : 1,
					"id" : "obj-7",
					"lockeddragscroll" : 0,
					"lockedsize" : 0,
					"maxclass" : "bpatcher",
					"name" : "bp.Oscillator.maxpat",
					"numinlets" : 6,
					"numoutlets" : 2,
					"offset" : [ 0.0, 0.0 ],
					"outlettype" : [ "signal", "signal" ],
					"patching_rect" : [ 463.0, 186.0, 314.0, 116.0 ],
					"varname" : "bp.Oscillator[1]",
					"viewvisibility" : 1
				}

			}
, 			{
				"box" : 				{
					"id" : "obj-4",
					"maxclass" : "comment",
					"numinlets" : 1,
					"numoutlets" : 0,
					"patching_rect" : [ 34.0, 98.0, 150.0, 20.0 ],
					"text" : "VCV Rack - Beap"
				}

			}
, 			{
				"box" : 				{
					"id" : "obj-2",
					"linecount" : 3,
					"maxclass" : "comment",
					"numinlets" : 1,
					"numoutlets" : 0,
					"patching_rect" : [ 34.0, 42.0, 150.0, 48.0 ],
					"text" : "Beap\nBerklee Electro Acoustic Pedagogy"
				}

			}
 ],
		"lines" : [ 			{
				"patchline" : 				{
					"destination" : [ "obj-1", 0 ],
					"source" : [ "obj-12", 0 ]
				}

			}
, 			{
				"patchline" : 				{
					"destination" : [ "obj-1", 0 ],
					"source" : [ "obj-17", 0 ]
				}

			}
, 			{
				"patchline" : 				{
					"destination" : [ "obj-25", 0 ],
					"source" : [ "obj-21", 1 ]
				}

			}
, 			{
				"patchline" : 				{
					"destination" : [ "obj-7", 0 ],
					"source" : [ "obj-21", 0 ]
				}

			}
, 			{
				"patchline" : 				{
					"destination" : [ "obj-14", 1 ],
					"order" : 0,
					"source" : [ "obj-22", 0 ]
				}

			}
, 			{
				"patchline" : 				{
					"destination" : [ "obj-14", 0 ],
					"order" : 1,
					"source" : [ "obj-22", 0 ]
				}

			}
, 			{
				"patchline" : 				{
					"destination" : [ "obj-1", 0 ],
					"source" : [ "obj-23", 0 ]
				}

			}
, 			{
				"patchline" : 				{
					"destination" : [ "obj-22", 1 ],
					"source" : [ "obj-25", 0 ]
				}

			}
, 			{
				"patchline" : 				{
					"destination" : [ "obj-1", 0 ],
					"source" : [ "obj-28", 0 ]
				}

			}
, 			{
				"patchline" : 				{
					"destination" : [ "obj-17", 0 ],
					"source" : [ "obj-3", 0 ]
				}

			}
, 			{
				"patchline" : 				{
					"destination" : [ "obj-22", 0 ],
					"source" : [ "obj-30", 0 ]
				}

			}
, 			{
				"patchline" : 				{
					"destination" : [ "obj-1", 0 ],
					"source" : [ "obj-33", 0 ]
				}

			}
, 			{
				"patchline" : 				{
					"destination" : [ "obj-7", 4 ],
					"source" : [ "obj-34", 0 ]
				}

			}
, 			{
				"patchline" : 				{
					"destination" : [ "obj-37", 1 ],
					"order" : 0,
					"source" : [ "obj-36", 0 ]
				}

			}
, 			{
				"patchline" : 				{
					"destination" : [ "obj-8", 0 ],
					"order" : 1,
					"source" : [ "obj-36", 0 ]
				}

			}
, 			{
				"patchline" : 				{
					"destination" : [ "obj-30", 0 ],
					"source" : [ "obj-37", 0 ]
				}

			}
, 			{
				"patchline" : 				{
					"destination" : [ "obj-1", 0 ],
					"source" : [ "obj-38", 0 ]
				}

			}
, 			{
				"patchline" : 				{
					"destination" : [ "obj-1", 0 ],
					"source" : [ "obj-40", 0 ]
				}

			}
, 			{
				"patchline" : 				{
					"destination" : [ "obj-18", 0 ],
					"order" : 2,
					"source" : [ "obj-7", 0 ]
				}

			}
, 			{
				"patchline" : 				{
					"destination" : [ "obj-37", 0 ],
					"order" : 1,
					"source" : [ "obj-7", 0 ]
				}

			}
, 			{
				"patchline" : 				{
					"destination" : [ "obj-8", 0 ],
					"order" : 0,
					"source" : [ "obj-7", 0 ]
				}

			}
, 			{
				"patchline" : 				{
					"destination" : [ "obj-1", 0 ],
					"source" : [ "obj-9", 0 ]
				}

			}
 ],
		"parameters" : 		{
			"obj-14::obj-22" : [ "Mute[1]", "Mute", 0 ],
			"obj-14::obj-52" : [ "Level", "Level", 0 ],
			"obj-14::obj-55" : [ "DSP", "DSP", 0 ],
			"obj-14::obj-56" : [ "OutputChannel", "OutputChannel", 0 ],
			"obj-18::obj-12" : [ "freq_scale", "LinLog", 0 ],
			"obj-18::obj-26" : [ "amp_scale", "LinLog", 0 ],
			"obj-18::obj-30" : [ "freq_domain_low", "freq_domain_low", 0 ],
			"obj-18::obj-31" : [ "domain_low_midi", "domain_low_midi", 0 ],
			"obj-18::obj-36" : [ "domain_high_midi", "domain_high_midi", 0 ],
			"obj-18::obj-37" : [ "freq_domain_high", "freq_domain_high", 0 ],
			"obj-18::obj-42::obj-2" : [ "pastebang", "pastebang", 0 ],
			"obj-18::obj-7" : [ "display_mode", "display", 0 ],
			"obj-18::obj-9" : [ "PollingInterval", "PollingInterval", 0 ],
			"obj-21::obj-12" : [ "KeyboardMode", "KeyboardMode", 0 ],
			"obj-21::obj-15::obj-2" : [ "pastebang[1]", "pastebang", 0 ],
			"obj-21::obj-48" : [ "live.text", "live.text", 0 ],
			"obj-21::obj-5" : [ "Octave", "Octave", 0 ],
			"obj-21::obj-52" : [ "octave", "octave", 0 ],
			"obj-21::obj-68" : [ "RepeatInterval", "RepeatInterval", 0 ],
			"obj-21::obj-71" : [ "velocity", "velocity", 0 ],
			"obj-22::obj-33" : [ "Quadrants", "Quadrants", 0 ],
			"obj-22::obj-55" : [ "Bypass", "Bypass", 0 ],
			"obj-22::obj-80" : [ "Response", "Response", 0 ],
			"obj-25::obj-106" : [ "DomainCV_Amt", "DomainCV_Amt", 0 ],
			"obj-25::obj-12" : [ "function", "function", 0 ],
			"obj-25::obj-129" : [ "Domain", "Domain", 0 ],
			"obj-25::obj-20" : [ "mute", "mute", 0 ],
			"obj-30::obj-11" : [ "Resonance", "Res", 0 ],
			"obj-30::obj-26" : [ "spectral", "spectral", 0 ],
			"obj-30::obj-51" : [ "CV2[1]", "CV2", 0 ],
			"obj-30::obj-54" : [ "CV1", "CV1", 0 ],
			"obj-30::obj-55" : [ "power", "power", 0 ],
			"obj-30::obj-59" : [ "filter_mode", "filter_mode", 0 ],
			"obj-30::obj-63" : [ "CV3[1]", "CV3", 0 ],
			"obj-30::obj-95" : [ "Freq[1]", "Freq", 0 ],
			"obj-30::obj-98" : [ "Gain", "Gain", 0 ],
			"obj-34::obj-12" : [ "Mute[2]", "Mute", 0 ],
			"obj-34::obj-144" : [ "Phase", "Phase", 0 ],
			"obj-34::obj-74" : [ "Rate", "Rate", 0 ],
			"obj-34::obj-75" : [ "Shape", "Shape", 0 ],
			"obj-34::obj-81" : [ "Phase-Inversion", "Phase-Inversion", 1 ],
			"obj-34::obj-88" : [ "Time Mode", "Time Mode", 1 ],
			"obj-34::obj-89" : [ "SyncRate", "Rate", 0 ],
			"obj-34::obj-94" : [ "Re-Trigger", "Re-Trigger", 0 ],
			"obj-36::obj-106" : [ "CV3[2]", "CV3", 0 ],
			"obj-36::obj-107" : [ "Linear[1]", "Linear", 0 ],
			"obj-36::obj-11" : [ "PWM[1]", "PWM", 0 ],
			"obj-36::obj-129" : [ "CV2[2]", "CV2", 0 ],
			"obj-36::obj-36" : [ "PW[1]", "PW", 0 ],
			"obj-36::obj-4" : [ "Waveform[1]", "Waveform", 0 ],
			"obj-36::obj-45" : [ "FreqMode[1]", "FreqMode", 0 ],
			"obj-36::obj-46" : [ "Offset[1]", "Offset", 0 ],
			"obj-36::obj-51" : [ "Freq[2]", "Freq", 0 ],
			"obj-36::obj-53" : [ "Mute[3]", "Mute", 0 ],
			"obj-37::obj-29" : [ "in3", "in3", 0 ],
			"obj-37::obj-32" : [ "in2", "in2", 0 ],
			"obj-37::obj-33" : [ "in4", "in4", 0 ],
			"obj-37::obj-37" : [ "power[1]", "power", 0 ],
			"obj-37::obj-39" : [ "in1", "in1", 0 ],
			"obj-7::obj-106" : [ "CV3", "CV3", 0 ],
			"obj-7::obj-107" : [ "Linear", "Linear", 0 ],
			"obj-7::obj-11" : [ "PWM", "PWM", 0 ],
			"obj-7::obj-129" : [ "CV2", "CV2", 0 ],
			"obj-7::obj-36" : [ "PW", "PW", 0 ],
			"obj-7::obj-4" : [ "Waveform", "Waveform", 0 ],
			"obj-7::obj-45" : [ "FreqMode", "FreqMode", 0 ],
			"obj-7::obj-46" : [ "Offset", "Offset", 0 ],
			"obj-7::obj-51" : [ "Freq", "Freq", 0 ],
			"obj-7::obj-53" : [ "Mute", "Mute", 0 ],
			"obj-8::obj-1" : [ "divide", "divide", 0 ],
			"obj-8::obj-129" : [ "Points", "Points", 0 ],
			"obj-8::obj-52" : [ "multiply", "multiply", 0 ],
			"obj-8::obj-69" : [ "Lock", "Lock", 0 ],
			"parameterbanks" : 			{
				"0" : 				{
					"index" : 0,
					"name" : "",
					"parameters" : [ "-", "-", "-", "-", "-", "-", "-", "-" ]
				}

			}
,
			"parameter_overrides" : 			{
				"obj-14::obj-22" : 				{
					"parameter_longname" : "Mute[1]"
				}
,
				"obj-21::obj-15::obj-2" : 				{
					"parameter_longname" : "pastebang[1]"
				}
,
				"obj-30::obj-51" : 				{
					"parameter_longname" : "CV2[1]"
				}
,
				"obj-30::obj-63" : 				{
					"parameter_longname" : "CV3[1]"
				}
,
				"obj-30::obj-95" : 				{
					"parameter_longname" : "Freq[1]"
				}
,
				"obj-34::obj-12" : 				{
					"parameter_longname" : "Mute[2]"
				}
,
				"obj-36::obj-106" : 				{
					"parameter_longname" : "CV3[2]"
				}
,
				"obj-36::obj-107" : 				{
					"parameter_longname" : "Linear[1]"
				}
,
				"obj-36::obj-11" : 				{
					"parameter_longname" : "PWM[1]"
				}
,
				"obj-36::obj-129" : 				{
					"parameter_longname" : "CV2[2]"
				}
,
				"obj-36::obj-36" : 				{
					"parameter_longname" : "PW[1]"
				}
,
				"obj-36::obj-4" : 				{
					"parameter_longname" : "Waveform[1]"
				}
,
				"obj-36::obj-45" : 				{
					"parameter_longname" : "FreqMode[1]"
				}
,
				"obj-36::obj-46" : 				{
					"parameter_longname" : "Offset[1]"
				}
,
				"obj-36::obj-51" : 				{
					"parameter_longname" : "Freq[2]"
				}
,
				"obj-36::obj-53" : 				{
					"parameter_longname" : "Mute[3]"
				}
,
				"obj-37::obj-37" : 				{
					"parameter_longname" : "power[1]"
				}

			}
,
			"inherited_shortname" : 1
		}
,
		"dependency_cache" : [ 			{
				"name" : "background_sm.maxpat",
				"bootpath" : "C74:/packages/Beap/misc",
				"type" : "JSON",
				"implicit" : 1
			}
, 			{
				"name" : "bp.Big Scope.maxpat",
				"bootpath" : "C74:/packages/Beap/clippings/BEAP/Scope",
				"type" : "JSON",
				"implicit" : 1
			}
, 			{
				"name" : "bp.Big Spectral.maxpat",
				"bootpath" : "C74:/packages/Beap/clippings/BEAP/Scope",
				"type" : "JSON",
				"implicit" : 1
			}
, 			{
				"name" : "bp.Classroom Filter.maxpat",
				"bootpath" : "C74:/packages/Beap/clippings/BEAP/Filter",
				"type" : "JSON",
				"implicit" : 1
			}
, 			{
				"name" : "bp.Graphic ADSR.maxpat",
				"bootpath" : "C74:/packages/Beap/clippings/BEAP/Envelope",
				"type" : "JSON",
				"implicit" : 1
			}
, 			{
				"name" : "bp.Keyboard.maxpat",
				"bootpath" : "C74:/packages/Beap/clippings/BEAP/Input",
				"type" : "JSON",
				"implicit" : 1
			}
, 			{
				"name" : "bp.LFO2.maxpat",
				"bootpath" : "C74:/packages/Beap/clippings/BEAP/LFO",
				"type" : "JSON",
				"implicit" : 1
			}
, 			{
				"name" : "bp.Oscillator.maxpat",
				"bootpath" : "C74:/packages/Beap/clippings/BEAP/Oscillator",
				"type" : "JSON",
				"implicit" : 1
			}
, 			{
				"name" : "bp.Signal Mixer.maxpat",
				"bootpath" : "C74:/packages/Beap/clippings/BEAP/Mixers",
				"type" : "JSON",
				"implicit" : 1
			}
, 			{
				"name" : "bp.Stereo.maxpat",
				"bootpath" : "C74:/packages/Beap/clippings/BEAP/Output",
				"type" : "JSON",
				"implicit" : 1
			}
, 			{
				"name" : "bp.VCA.maxpat",
				"bootpath" : "C74:/packages/Beap/clippings/BEAP/Level",
				"type" : "JSON",
				"implicit" : 1
			}
, 			{
				"name" : "mySynth.json",
				"bootpath" : "~/Desktop/Interactive Sound/Beap Synth",
				"patcherrelativepath" : ".",
				"type" : "JSON",
				"implicit" : 1
			}
, 			{
				"name" : "pastebang.maxpat",
				"bootpath" : "C74:/packages/Beap/misc",
				"type" : "JSON",
				"implicit" : 1
			}
, 			{
				"name" : "sine.svg",
				"bootpath" : "C74:/media/max/picts/m4l-picts",
				"type" : "svg",
				"implicit" : 1
			}
, 			{
				"name" : "square.svg",
				"bootpath" : "C74:/media/max/picts/m4l-picts",
				"type" : "svg",
				"implicit" : 1
			}
, 			{
				"name" : "up.svg",
				"bootpath" : "C74:/media/max/picts/m4l-picts",
				"type" : "svg",
				"implicit" : 1
			}
, 			{
				"name" : "updown.svg",
				"bootpath" : "C74:/media/max/picts/m4l-picts",
				"type" : "svg",
				"implicit" : 1
			}
 ],
		"autosave" : 0
	}

}
